<mxfile host="Electron" modified="2023-11-20T05:33:15.007Z" agent="Mozilla/5.0 (Windows NT 10.0; Win64; x64) AppleWebKit/537.36 (KHTML, like Gecko) draw.io/22.0.2 Chrome/114.0.5735.289 Electron/25.8.4 Safari/537.36" etag="83ZO6n_bGUMtsyeZt5tc" version="22.0.2" type="device">
  <diagram name="Page-1" id="a3B4zav-jRU-uLR0BQOt">
    <mxGraphModel dx="1206" dy="690" grid="1" gridSize="10" guides="1" tooltips="1" connect="1" arrows="1" fold="1" page="1" pageScale="1" pageWidth="1800" pageHeight="1200" math="0" shadow="0">
      <root>
        <mxCell id="0" />
        <mxCell id="1" parent="0" />
        <mxCell id="gglZUJ9griQd1HqVkeph-8" style="edgeStyle=orthogonalEdgeStyle;rounded=0;orthogonalLoop=1;jettySize=auto;html=1;entryX=0;entryY=0.5;entryDx=0;entryDy=0;" edge="1" parent="1" source="gglZUJ9griQd1HqVkeph-4" target="gglZUJ9griQd1HqVkeph-5">
          <mxGeometry relative="1" as="geometry" />
        </mxCell>
        <mxCell id="gglZUJ9griQd1HqVkeph-9" style="edgeStyle=orthogonalEdgeStyle;rounded=0;orthogonalLoop=1;jettySize=auto;html=1;entryX=0;entryY=0.5;entryDx=0;entryDy=0;" edge="1" parent="1" source="gglZUJ9griQd1HqVkeph-4" target="gglZUJ9griQd1HqVkeph-6">
          <mxGeometry relative="1" as="geometry" />
        </mxCell>
        <mxCell id="gglZUJ9griQd1HqVkeph-4" value="" style="verticalLabelPosition=bottom;html=1;verticalAlign=top;align=center;strokeColor=none;fillColor=#00BEF2;shape=mxgraph.azure.file;pointerEvents=1;" vertex="1" parent="1">
          <mxGeometry x="240" y="160" width="57.5" height="80" as="geometry" />
        </mxCell>
        <mxCell id="gglZUJ9griQd1HqVkeph-5" value="Speed Layer" style="shape=process;whiteSpace=wrap;html=1;backgroundOutline=1;" vertex="1" parent="1">
          <mxGeometry x="400" y="120" width="120" height="60" as="geometry" />
        </mxCell>
        <mxCell id="gglZUJ9griQd1HqVkeph-6" value="Batch Layer" style="shape=process;whiteSpace=wrap;html=1;backgroundOutline=1;" vertex="1" parent="1">
          <mxGeometry x="400" y="220" width="120" height="60" as="geometry" />
        </mxCell>
        <mxCell id="gglZUJ9griQd1HqVkeph-7" value="Serving/Query Layer" style="shape=process;whiteSpace=wrap;html=1;backgroundOutline=1;" vertex="1" parent="1">
          <mxGeometry x="600" y="120" width="120" height="160" as="geometry" />
        </mxCell>
        <mxCell id="gglZUJ9griQd1HqVkeph-10" style="edgeStyle=orthogonalEdgeStyle;rounded=0;orthogonalLoop=1;jettySize=auto;html=1;entryX=0;entryY=0.5;entryDx=0;entryDy=0;" edge="1" parent="1" source="gglZUJ9griQd1HqVkeph-6" target="gglZUJ9griQd1HqVkeph-7">
          <mxGeometry relative="1" as="geometry" />
        </mxCell>
        <mxCell id="gglZUJ9griQd1HqVkeph-11" style="edgeStyle=orthogonalEdgeStyle;rounded=0;orthogonalLoop=1;jettySize=auto;html=1;endArrow=none;endFill=0;entryX=0;entryY=0.5;entryDx=0;entryDy=0;" edge="1" parent="1" source="gglZUJ9griQd1HqVkeph-5" target="gglZUJ9griQd1HqVkeph-7">
          <mxGeometry relative="1" as="geometry">
            <mxPoint x="700" y="150" as="targetPoint" />
            <Array as="points">
              <mxPoint x="560" y="150" />
              <mxPoint x="560" y="200" />
            </Array>
          </mxGeometry>
        </mxCell>
      </root>
    </mxGraphModel>
  </diagram>
</mxfile>
